<svg width="96" height="96" viewBox="0 0 96 96" xmlns="http://www.w3.org/2000/svg">
    <defs>
      <linearGradient id="grad1" x1="0%" y1="0%" x2="100%" y2="100%">
        <stop offset="0%" style="stop-color:#6366f1;stop-opacity:1" />
        <stop offset="100%" style="stop-color:#8b5cf6;stop-opacity:1" />
      </linearGradient>
      <linearGradient id="grad2" x1="0%" y1="0%" x2="100%" y2="100%">
        <stop offset="0%" style="stop-color:#10b981;stop-opacity:1" />
        <stop offset="100%" style="stop-color:#3b82f6;stop-opacity:1" />
      </linearGradient>
    </defs>
    
    <!-- Background circle -->
    <circle cx="48" cy="48" r="44" fill="url(#grad1)" stroke="#ffffff" stroke-width="2"/>
    
    <!-- Shield/Chat bubble shape -->
    <path d="M 28.799999999999997 24 
             L 67.19999999999999 24 
             C 81.6 24 81.6 43.2 67.19999999999999 43.2 
             L 48 43.2 
             L 28.799999999999997 62.400000000000006 
             L 28.799999999999997 43.2 
             C 14.399999999999999 43.2 14.399999999999999 24 28.799999999999997 24 Z" 
          fill="url(#grad2)" opacity="0.9"/>
    
    <!-- Lock/Security symbol -->
    <rect x="38.400000000000006" y="52.800000000000004" width="19.200000000000003" height="14.399999999999999" fill="#ffffff" rx="2"/>
    <path d="M 40.32 52.800000000000004 
             L 40.32 48 
             C 40.32 43.2 43.2 40.32 48 40.32 
             C 52.800000000000004 40.32 55.67999999999999 43.2 55.67999999999999 48 
             L 55.67999999999999 52.800000000000004 
             M 44.160000000000004 49.92 
             L 44.160000000000004 52.800000000000004 
             M 51.84 49.92 
             L 51.84 52.800000000000004" 
          stroke="#ffffff" stroke-width="1.5" fill="none"/>
  </svg>