<svg width="72" height="72" viewBox="0 0 72 72" xmlns="http://www.w3.org/2000/svg">
    <defs>
      <linearGradient id="grad1" x1="0%" y1="0%" x2="100%" y2="100%">
        <stop offset="0%" style="stop-color:#6366f1;stop-opacity:1" />
        <stop offset="100%" style="stop-color:#8b5cf6;stop-opacity:1" />
      </linearGradient>
      <linearGradient id="grad2" x1="0%" y1="0%" x2="100%" y2="100%">
        <stop offset="0%" style="stop-color:#10b981;stop-opacity:1" />
        <stop offset="100%" style="stop-color:#3b82f6;stop-opacity:1" />
      </linearGradient>
    </defs>
    
    <!-- Background circle -->
    <circle cx="36" cy="36" r="32" fill="url(#grad1)" stroke="#ffffff" stroke-width="2"/>
    
    <!-- Shield/Chat bubble shape -->
    <path d="M 21.599999999999998 18 
             L 50.4 18 
             C 61.199999999999996 18 61.199999999999996 32.4 50.4 32.4 
             L 36 32.4 
             L 21.599999999999998 46.800000000000004 
             L 21.599999999999998 32.4 
             C 10.799999999999999 32.4 10.799999999999999 18 21.599999999999998 18 Z" 
          fill="url(#grad2)" opacity="0.9"/>
    
    <!-- Lock/Security symbol -->
    <rect x="28.8" y="39.6" width="14.4" height="10.799999999999999" fill="#ffffff" rx="2"/>
    <path d="M 30.24 39.6 
             L 30.24 36 
             C 30.24 32.4 32.4 30.24 36 30.24 
             C 39.6 30.24 41.76 32.4 41.76 36 
             L 41.76 39.6 
             M 33.120000000000005 37.44 
             L 33.120000000000005 39.6 
             M 38.88 37.44 
             L 38.88 39.6" 
          stroke="#ffffff" stroke-width="1.5" fill="none"/>
  </svg>